<mxfile host="app.diagrams.net" modified="2022-03-11T12:01:47.390Z" agent="5.0 (Windows NT 10.0; Win64; x64) AppleWebKit/537.36 (KHTML, like Gecko) Chrome/98.0.4758.80 Safari/537.36 Edg/98.0.1108.50" etag="XQv_A34VeCpEZAyyJpFO" version="17.1.1" type="github">
  <diagram id="R2lEEEUBdFMjLlhIrx00" name="Page-1">
    <mxGraphModel dx="2198" dy="981" grid="1" gridSize="10" guides="1" tooltips="1" connect="1" arrows="1" fold="1" page="1" pageScale="1" pageWidth="850" pageHeight="1100" math="0" shadow="0" extFonts="Permanent Marker^https://fonts.googleapis.com/css?family=Permanent+Marker">
      <root>
        <mxCell id="0" />
        <mxCell id="1" parent="0" />
        <mxCell id="GzRN_tmuiBxeOjjzwh3L-35" style="edgeStyle=orthogonalEdgeStyle;rounded=0;orthogonalLoop=1;jettySize=auto;html=1;exitX=1;exitY=0.5;exitDx=0;exitDy=0;fillColor=#dae8fc;strokeColor=#6c8ebf;" edge="1" parent="1" source="GzRN_tmuiBxeOjjzwh3L-1" target="GzRN_tmuiBxeOjjzwh3L-34">
          <mxGeometry relative="1" as="geometry" />
        </mxCell>
        <mxCell id="GzRN_tmuiBxeOjjzwh3L-1" value="学生表" style="rounded=0;whiteSpace=wrap;html=1;fillColor=#dae8fc;strokeColor=#6c8ebf;" vertex="1" parent="1">
          <mxGeometry x="30" y="120" width="120" height="60" as="geometry" />
        </mxCell>
        <mxCell id="GzRN_tmuiBxeOjjzwh3L-2" value="学号" style="ellipse;whiteSpace=wrap;html=1;fillColor=#dae8fc;strokeColor=#6c8ebf;" vertex="1" parent="1">
          <mxGeometry x="20" y="60" width="80" height="40" as="geometry" />
        </mxCell>
        <mxCell id="GzRN_tmuiBxeOjjzwh3L-3" value="姓名" style="ellipse;whiteSpace=wrap;html=1;fillColor=#dae8fc;strokeColor=#6c8ebf;" vertex="1" parent="1">
          <mxGeometry x="110" y="60" width="80" height="40" as="geometry" />
        </mxCell>
        <mxCell id="GzRN_tmuiBxeOjjzwh3L-4" value="性别" style="ellipse;whiteSpace=wrap;html=1;fillColor=#dae8fc;strokeColor=#6c8ebf;" vertex="1" parent="1">
          <mxGeometry x="210" y="60" width="80" height="40" as="geometry" />
        </mxCell>
        <mxCell id="GzRN_tmuiBxeOjjzwh3L-5" value="出生年月" style="ellipse;whiteSpace=wrap;html=1;fillColor=#dae8fc;strokeColor=#6c8ebf;" vertex="1" parent="1">
          <mxGeometry x="300" y="60" width="80" height="40" as="geometry" />
        </mxCell>
        <mxCell id="GzRN_tmuiBxeOjjzwh3L-6" value="入学时间" style="ellipse;whiteSpace=wrap;html=1;fillColor=#dae8fc;strokeColor=#6c8ebf;" vertex="1" parent="1">
          <mxGeometry x="390" y="60" width="80" height="40" as="geometry" />
        </mxCell>
        <mxCell id="GzRN_tmuiBxeOjjzwh3L-7" value="班级名称" style="ellipse;whiteSpace=wrap;html=1;fillColor=#d5e8d4;strokeColor=#82b366;" vertex="1" parent="1">
          <mxGeometry x="110" y="250" width="80" height="40" as="geometry" />
        </mxCell>
        <mxCell id="GzRN_tmuiBxeOjjzwh3L-8" value="专业名称" style="ellipse;whiteSpace=wrap;html=1;fillColor=#ffe6cc;strokeColor=#d79b00;" vertex="1" parent="1">
          <mxGeometry x="110" y="450" width="80" height="40" as="geometry" />
        </mxCell>
        <mxCell id="GzRN_tmuiBxeOjjzwh3L-9" value="班级备注" style="ellipse;whiteSpace=wrap;html=1;fillColor=#d5e8d4;strokeColor=#82b366;" vertex="1" parent="1">
          <mxGeometry x="210" y="250" width="80" height="40" as="geometry" />
        </mxCell>
        <mxCell id="GzRN_tmuiBxeOjjzwh3L-11" value="系主任名称" style="ellipse;whiteSpace=wrap;html=1;fillColor=#e1d5e7;strokeColor=#9673a6;" vertex="1" parent="1">
          <mxGeometry x="210" y="620" width="80" height="40" as="geometry" />
        </mxCell>
        <mxCell id="GzRN_tmuiBxeOjjzwh3L-36" style="edgeStyle=orthogonalEdgeStyle;rounded=0;orthogonalLoop=1;jettySize=auto;html=1;exitX=1;exitY=0.5;exitDx=0;exitDy=0;entryX=0.5;entryY=1;entryDx=0;entryDy=0;" edge="1" parent="1" source="GzRN_tmuiBxeOjjzwh3L-12" target="GzRN_tmuiBxeOjjzwh3L-34">
          <mxGeometry relative="1" as="geometry" />
        </mxCell>
        <mxCell id="GzRN_tmuiBxeOjjzwh3L-41" style="edgeStyle=orthogonalEdgeStyle;rounded=0;orthogonalLoop=1;jettySize=auto;html=1;entryX=0.438;entryY=0.05;entryDx=0;entryDy=0;entryPerimeter=0;" edge="1" parent="1" source="GzRN_tmuiBxeOjjzwh3L-12" target="GzRN_tmuiBxeOjjzwh3L-38">
          <mxGeometry relative="1" as="geometry" />
        </mxCell>
        <mxCell id="GzRN_tmuiBxeOjjzwh3L-12" value="班级表" style="rounded=0;whiteSpace=wrap;html=1;fillColor=#d5e8d4;strokeColor=#82b366;" vertex="1" parent="1">
          <mxGeometry x="30" y="300" width="120" height="60" as="geometry" />
        </mxCell>
        <mxCell id="GzRN_tmuiBxeOjjzwh3L-39" style="edgeStyle=orthogonalEdgeStyle;rounded=0;orthogonalLoop=1;jettySize=auto;html=1;exitX=1;exitY=0.5;exitDx=0;exitDy=0;" edge="1" parent="1" source="GzRN_tmuiBxeOjjzwh3L-13" target="GzRN_tmuiBxeOjjzwh3L-38">
          <mxGeometry relative="1" as="geometry" />
        </mxCell>
        <mxCell id="GzRN_tmuiBxeOjjzwh3L-43" style="edgeStyle=orthogonalEdgeStyle;rounded=0;orthogonalLoop=1;jettySize=auto;html=1;exitX=1;exitY=0.5;exitDx=0;exitDy=0;" edge="1" parent="1" source="GzRN_tmuiBxeOjjzwh3L-13" target="GzRN_tmuiBxeOjjzwh3L-42">
          <mxGeometry relative="1" as="geometry" />
        </mxCell>
        <mxCell id="GzRN_tmuiBxeOjjzwh3L-13" value="专业表" style="rounded=0;whiteSpace=wrap;html=1;fillColor=#ffe6cc;strokeColor=#d79b00;" vertex="1" parent="1">
          <mxGeometry x="30" y="510" width="120" height="60" as="geometry" />
        </mxCell>
        <mxCell id="GzRN_tmuiBxeOjjzwh3L-44" style="edgeStyle=orthogonalEdgeStyle;rounded=0;orthogonalLoop=1;jettySize=auto;html=1;exitX=1;exitY=0.5;exitDx=0;exitDy=0;" edge="1" parent="1" source="GzRN_tmuiBxeOjjzwh3L-14" target="GzRN_tmuiBxeOjjzwh3L-42">
          <mxGeometry relative="1" as="geometry" />
        </mxCell>
        <mxCell id="GzRN_tmuiBxeOjjzwh3L-14" value="系部(学院表)" style="rounded=0;whiteSpace=wrap;html=1;fillColor=#e1d5e7;strokeColor=#9673a6;" vertex="1" parent="1">
          <mxGeometry x="30" y="680" width="120" height="60" as="geometry" />
        </mxCell>
        <mxCell id="GzRN_tmuiBxeOjjzwh3L-17" value="班级编号" style="ellipse;whiteSpace=wrap;html=1;fillColor=#d5e8d4;strokeColor=#82b366;" vertex="1" parent="1">
          <mxGeometry x="20" y="250" width="80" height="40" as="geometry" />
        </mxCell>
        <mxCell id="GzRN_tmuiBxeOjjzwh3L-19" value="班级编号" style="ellipse;whiteSpace=wrap;html=1;fillColor=#d5e8d4;strokeColor=#82b366;" vertex="1" parent="1">
          <mxGeometry x="490" y="60" width="80" height="40" as="geometry" />
        </mxCell>
        <mxCell id="GzRN_tmuiBxeOjjzwh3L-21" value="专业编号" style="ellipse;whiteSpace=wrap;html=1;fillColor=#ffe6cc;strokeColor=#d79b00;" vertex="1" parent="1">
          <mxGeometry x="300" y="250" width="80" height="40" as="geometry" />
        </mxCell>
        <mxCell id="GzRN_tmuiBxeOjjzwh3L-22" value="专业编号" style="ellipse;whiteSpace=wrap;html=1;fillColor=#ffe6cc;strokeColor=#d79b00;" vertex="1" parent="1">
          <mxGeometry x="20" y="450" width="80" height="40" as="geometry" />
        </mxCell>
        <mxCell id="GzRN_tmuiBxeOjjzwh3L-24" value="系部编号" style="ellipse;whiteSpace=wrap;html=1;fillColor=#e1d5e7;strokeColor=#9673a6;" vertex="1" parent="1">
          <mxGeometry x="20" y="620" width="80" height="40" as="geometry" />
        </mxCell>
        <mxCell id="GzRN_tmuiBxeOjjzwh3L-25" value="系部编号" style="ellipse;whiteSpace=wrap;html=1;fillColor=#e1d5e7;strokeColor=#9673a6;" vertex="1" parent="1">
          <mxGeometry x="210" y="450" width="80" height="40" as="geometry" />
        </mxCell>
        <mxCell id="GzRN_tmuiBxeOjjzwh3L-26" value="专业编号" style="ellipse;whiteSpace=wrap;html=1;fillColor=#ffe6cc;strokeColor=#d79b00;" vertex="1" parent="1">
          <mxGeometry x="590" y="60" width="80" height="40" as="geometry" />
        </mxCell>
        <mxCell id="GzRN_tmuiBxeOjjzwh3L-27" value="系部编号" style="ellipse;whiteSpace=wrap;html=1;fillColor=#e1d5e7;strokeColor=#9673a6;" vertex="1" parent="1">
          <mxGeometry x="690" y="60" width="80" height="40" as="geometry" />
        </mxCell>
        <mxCell id="GzRN_tmuiBxeOjjzwh3L-29" value="管理员" style="rounded=0;whiteSpace=wrap;html=1;fillColor=#f8cecc;strokeColor=#b85450;" vertex="1" parent="1">
          <mxGeometry x="30" y="860" width="120" height="60" as="geometry" />
        </mxCell>
        <mxCell id="GzRN_tmuiBxeOjjzwh3L-31" value="id" style="ellipse;whiteSpace=wrap;html=1;fillColor=#f8cecc;strokeColor=#b85450;" vertex="1" parent="1">
          <mxGeometry x="20" y="800" width="80" height="40" as="geometry" />
        </mxCell>
        <mxCell id="GzRN_tmuiBxeOjjzwh3L-32" value="管理员账户" style="ellipse;whiteSpace=wrap;html=1;fillColor=#f8cecc;strokeColor=#b85450;" vertex="1" parent="1">
          <mxGeometry x="110" y="800" width="80" height="40" as="geometry" />
        </mxCell>
        <mxCell id="GzRN_tmuiBxeOjjzwh3L-33" value="密码" style="ellipse;whiteSpace=wrap;html=1;fillColor=#f8cecc;strokeColor=#b85450;" vertex="1" parent="1">
          <mxGeometry x="210" y="800" width="80" height="40" as="geometry" />
        </mxCell>
        <mxCell id="GzRN_tmuiBxeOjjzwh3L-34" value="学生属于班级" style="rhombus;whiteSpace=wrap;html=1;" vertex="1" parent="1">
          <mxGeometry x="700" y="110" width="130" height="80" as="geometry" />
        </mxCell>
        <mxCell id="GzRN_tmuiBxeOjjzwh3L-38" value="班级属于专业" style="rhombus;whiteSpace=wrap;html=1;" vertex="1" parent="1">
          <mxGeometry x="610" y="370" width="130" height="80" as="geometry" />
        </mxCell>
        <mxCell id="GzRN_tmuiBxeOjjzwh3L-42" value="专业属于系部" style="rhombus;whiteSpace=wrap;html=1;" vertex="1" parent="1">
          <mxGeometry x="470" y="590" width="130" height="80" as="geometry" />
        </mxCell>
        <mxCell id="GzRN_tmuiBxeOjjzwh3L-45" value="系部名称" style="ellipse;whiteSpace=wrap;html=1;fillColor=#e1d5e7;strokeColor=#9673a6;" vertex="1" parent="1">
          <mxGeometry x="110" y="620" width="80" height="40" as="geometry" />
        </mxCell>
      </root>
    </mxGraphModel>
  </diagram>
</mxfile>
